<?xml version="1.0" encoding="utf-8"?>
<!-- Generator: Adobe Illustrator 16.0.4, SVG Export Plug-In . SVG Version: 6.00 Build 0)  -->
<!DOCTYPE svg PUBLIC "-//W3C//DTD SVG 1.1//EN" "http://www.w3.org/Graphics/SVG/1.1/DTD/svg11.dtd">
<svg version="1.1" id="Layer_1" xmlns="http://www.w3.org/2000/svg" xmlns:xlink="http://www.w3.org/1999/xlink" x="0px" y="0px"
	 width="255.827px" height="73.662px" viewBox="0 0 255.827 73.662" enable-background="new 0 0 255.827 73.662"
	 xml:space="preserve">
<g>
	<defs>
		<rect id="SVGID_1_" width="255.827" height="73.662"/>
	</defs>
	<clipPath id="SVGID_2_">
		<use xlink:href="#SVGID_1_"  overflow="visible"/>
	</clipPath>
	<path clip-path="url(#SVGID_2_)" fill="#00AD68" d="M179.28,56.423c-1.283-0.485-2.637-0.729-4.511-0.729
		c-3.398,0-4.96,2.463-4.96,4.754c0,2.045,0.764,3.433,3.33,5.201c1.839,1.25,2.082,1.735,2.082,2.568
		c0,0.797-0.555,1.387-1.77,1.387c-0.972,0-2.671-0.451-4.093-1.041l-0.937,2.914c1.561,0.902,3.225,1.283,5.029,1.283
		c3.539,0,5.48-2.185,5.48-4.925c0-1.7-0.59-2.845-3.677-5.134c-1.354-1.041-1.699-1.596-1.699-2.498
		c0-0.797,0.451-1.457,1.595-1.457c1.076,0,2.151,0.209,3.399,0.591L179.28,56.423z M165.867,65.025
		c0.381-1.562,0.59-3.746,0.59-4.787c0-2.879-1.458-4.578-4.857-4.578c-4.683,0-7.526,4.022-7.526,10.545
		c0,4.266,1.942,6.555,5.619,6.555c2.532,0,4.475-0.554,7.041-1.872l-0.866-2.776c-2.498,1.181-4.06,1.527-5.308,1.527
		c-1.631,0-2.533-0.972-2.533-3.677v-0.486L165.867,65.025z M158.27,62.77c0.348-2.705,1.284-4.197,3.019-4.197
		c1.109,0,1.733,0.625,1.733,1.908c0,0.418-0.035,1.25-0.173,2.047L158.27,62.77z M149.391,50.387l-3.191,0.104l-1.007,5.654
		l-2.149,0.139L142.8,58.92l2.047,0.104l-0.868,8.5c-0.104,0.901-0.139,1.525-0.139,2.08c0,2.289,1.11,3.156,3.192,3.156
		c1.838,0,3.469-0.346,5.585-1.248l-0.659-2.81c-1.284,0.485-2.603,0.728-3.157,0.728c-0.59,0-0.902-0.173-0.902-0.9
		c0-0.418,0-1.006,0.069-1.84l0.729-7.631h3.988l0.277-2.914h-4.024L149.391,50.387z M141.291,52.779l0.382-4.022h-3.85
		l-0.383,4.022H141.291z M140.943,56.109h-3.85l-1.631,16.408h3.886L140.943,56.109z M133.785,56.423
		c-1.283-0.485-2.637-0.729-4.51-0.729c-3.398,0-4.961,2.463-4.961,4.754c0,2.045,0.765,3.433,3.331,5.201
		c1.838,1.25,2.081,1.735,2.081,2.568c0,0.797-0.556,1.387-1.769,1.387c-0.973,0-2.671-0.451-4.093-1.041l-0.938,2.914
		c1.562,0.902,3.226,1.283,5.03,1.283c3.538,0,5.479-2.185,5.479-4.925c0-1.7-0.59-2.845-3.677-5.134
		c-1.352-1.041-1.7-1.596-1.7-2.498c0-0.797,0.452-1.457,1.598-1.457c1.074,0,2.149,0.209,3.398,0.591L133.785,56.423z
		 M121.739,61.73c0-4.129-1.562-5.897-3.989-5.897c-1.319,0-2.151,0.347-4.822,2.637l1.075-11.065l-3.816,0.207l-2.427,24.247
		c1.803,0.556,4.301,0.901,5.827,0.901C118.617,72.76,121.739,68.944,121.739,61.73 M117.818,62.562
		c0,4.647-1.179,7.007-3.643,7.007c-0.624,0-1.56-0.104-2.323-0.312l0.797-7.597c2.082-1.77,2.637-2.115,3.33-2.115
		C117.193,59.545,117.818,60.516,117.818,62.562 M104.582,65.025c0.382-1.562,0.59-3.746,0.59-4.787
		c0-2.879-1.457-4.578-4.856-4.578c-4.683,0-7.526,4.022-7.526,10.545c0,4.266,1.941,6.555,5.619,6.555
		c2.532,0,4.475-0.554,7.042-1.872l-0.868-2.776c-2.497,1.181-4.059,1.527-5.308,1.527c-1.63,0-2.531-0.972-2.531-3.677v-0.486
		L104.582,65.025z M96.985,62.77c0.348-2.705,1.283-4.197,3.019-4.197c1.11,0,1.734,0.625,1.734,1.908
		c0,0.418-0.035,1.25-0.174,2.047L96.985,62.77z M70.575,56.18l2.394,16.338h3.85l3.47-9.505c0.173-0.45,0.277-0.901,0.312-1.317
		c0,0.416,0.035,0.764,0.14,1.283l1.804,9.539h3.919l6.071-16.373H88.89l-3.365,10.649c-0.241,0.764-0.312,1.041-0.346,1.457
		c0-0.416-0.035-0.832-0.139-1.388l-1.908-10.129h-3.573l-3.642,10.094c-0.173,0.451-0.277,0.902-0.312,1.318
		c0-0.416,0-0.902-0.035-1.283L74.391,56.18H70.575z"/>
	<path clip-path="url(#SVGID_2_)" fill="#D60057" d="M254.779,25.215c0.477-2.381,0.857-5.237,0.857-6.952
		c0-4.142-2.143-6.713-7.428-6.713c-6.857,0-11.285,5.142-11.285,14.617c0,5.762,2.809,9.38,8.571,9.38
		c4.284,0,6.999-0.857,10.332-2.523l-1.477-5.047c-3.238,1.381-5.38,1.857-7.094,1.857c-1.811,0-2.811-1.095-2.811-3.667v-0.381
		L254.779,25.215z M244.732,21.406c0.286-3,1.048-4.523,2.952-4.523c0.952,0,1.619,0.666,1.619,1.761
		c0,0.476-0.048,1.476-0.19,2.572L244.732,21.406z M236.195,0.122l-7.522,0.334l-3.428,34.71h7.522L236.195,0.122z M210.783,19.312
		c1.43-0.714,2.049-0.905,2.619-0.905c1.571,0,2.238,1.143,2.238,3.428c0,5.048-1.047,7.809-3.476,7.809
		c-0.477,0-1.524-0.095-2.382-0.285L210.783,19.312z M209.118,35.357c0.714,0.048,1.381,0.048,1.903,0.048
		c7.43,0,12.096-4.857,12.096-15.332c0-5.762-2.049-8.285-5.905-8.285c-1.763,0-3.047,0.857-5.999,2.904l0.238-2.428h-7.285
		l-3.238,32.378l7.38-0.381L209.118,35.357z M192.485,21.978c0,5.381-1.428,7.523-3.428,7.523c-1.714,0-2.762-0.761-2.762-4.38
		c0-5.428,1.523-7.333,3.429-7.333C191.249,17.787,192.485,18.501,192.485,21.978 M199.818,21.263c0-6.38-2.903-9.57-9.617-9.57
		c-7.571,0-11.285,5.809-11.285,13.903c0,6.952,3.143,9.951,9.713,9.951C195.771,35.547,199.818,30.357,199.818,21.263
		 M175.708,25.215c0.476-2.381,0.856-5.237,0.856-6.952c0-4.142-2.143-6.713-7.428-6.713c-6.857,0-11.285,5.142-11.285,14.617
		c0,5.762,2.811,9.38,8.57,9.38c4.286,0,7-0.857,10.333-2.523l-1.477-5.047c-3.237,1.381-5.38,1.857-7.095,1.857
		c-1.809,0-2.809-1.095-2.809-3.667v-0.381L175.708,25.215z M165.661,21.406c0.284-3,1.047-4.523,2.951-4.523
		c0.952,0,1.619,0.666,1.619,1.761c0,0.476-0.048,1.476-0.19,2.572L165.661,21.406z M142.454,19.312
		c1.428-0.714,2.047-0.905,2.618-0.905c1.571,0,2.238,1.143,2.238,3.428c0,5.048-1.048,7.809-3.477,7.809
		c-0.476,0-1.523-0.095-2.38-0.285L142.454,19.312z M140.787,35.357c0.714,0.048,1.381,0.048,1.904,0.048
		c7.429,0,12.095-4.857,12.095-15.332c0-5.762-2.049-8.285-5.904-8.285c-1.762,0-3.048,0.857-5.999,2.904l0.238-2.428h-7.286
		l-3.237,32.378l7.38-0.381L140.787,35.357z M120.031,16.339c2.146-0.838,3.053-0.973,4.059-0.973c1.141,0,1.577,0.571,1.577,1.409
		c0,1.006-0.369,1.543-2.247,3.052l-5.603,4.562l0.437,3.522h12.443l0.369-3.924h-6.74l2.782-2.181
		c2.986-2.347,3.958-3.656,3.958-6.004c0-3.085-2.146-4.83-5.668-4.83c-1.979,0-4.294,0.504-6.607,1.61L120.031,16.339z
		 M107.548,21.978c0,5.381-1.428,7.523-3.428,7.523c-1.715,0-2.763-0.761-2.763-4.38c0-5.428,1.524-7.333,3.43-7.333
		C106.311,17.787,107.548,18.501,107.548,21.978 M114.881,21.263c0-6.38-2.905-9.57-9.618-9.57c-7.571,0-11.284,5.809-11.284,13.903
		c0,6.952,3.143,9.951,9.712,9.951C110.834,35.547,114.881,30.357,114.881,21.263 M83.946,38.214c0,1.19-2.381,2.286-4.666,2.286
		c-2.619,0-3.237-0.715-3.237-1.429c0-0.667,0.142-1.286,0.809-2.571l5.999,0.714C83.709,37.309,83.946,37.595,83.946,38.214
		 M83.804,21.501c0,1.905-1.143,3.048-5.238,3.143c-0.333-1-0.57-2.619-0.57-3.381c0-2.19,0.762-4.19,2.951-4.19
		C82.518,17.073,83.804,18.263,83.804,21.501 M81.423,11.646c-6.618,0-10.427,4.333-10.427,10.237c0,2.095,0.666,4.19,1.999,6.19
		c-2.143,2.143-2.618,2.952-2.618,4c0,1.476,0.476,2.38,1.809,3.142c-2.905,2.619-3.381,3.476-3.381,4.809
		c0,3.047,2.572,5.57,9.666,5.57c6.428,0,12.618-4.047,12.618-9.285c0-2.571-1.381-4.095-4.477-4.523l-8.999-1.19
		c-0.189-0.048-0.285-0.096-0.285-0.334c0-0.19,0.096-0.571,0.334-0.904c10.046,0,13.283-3.381,13.283-8.238
		c0-1.619-0.284-3.095-0.809-4.38l3.237-0.429l-0.952-5.714l-6.476,1.762C84.804,11.979,82.946,11.646,81.423,11.646"/>
	<path clip-path="url(#SVGID_2_)" fill="#D60057" d="M45.472,21.373c-4.773-5.074-11.695-8.268-19.402-8.268
		C11.672,13.105,0,24.246,0,37.99c0,3.371,0.706,6.584,1.978,9.516l9.742-5.853c-0.577-1.665-0.947-3.433-0.947-5.303
		c0-8.726,6.848-15.8,15.296-15.8c4.638,0,8.743,2.177,11.548,5.542L45.472,21.373z"/>
	<path clip-path="url(#SVGID_2_)" fill="#D60057" d="M52.14,37.99c0-3.998-0.993-7.773-2.749-11.121l-8.663,5.206
		c0.374,1.368,0.639,2.783,0.639,4.274c0,8.726-6.849,15.8-15.297,15.8c-4.267,0-8.117-1.812-10.892-4.722l-9.692,5.824
		c4.769,5.854,12.212,9.623,20.583,9.623C40.468,62.875,52.14,51.734,52.14,37.99"/>
	<path clip-path="url(#SVGID_2_)" fill="#D60057" d="M16.358,10.094c2.68-1.61,3.732-4.777,2.353-7.074S14.04,0.166,11.36,1.777
		C8.682,3.387,7.627,6.554,9.007,8.85C10.388,11.147,13.679,11.704,16.358,10.094"/>
</g>
<g>
	<defs>
		<rect id="SVGID_3_" width="255.827" height="73.662"/>
	</defs>
	<clipPath id="SVGID_4_">
		<use xlink:href="#SVGID_3_"  overflow="visible"/>
	</clipPath>
	
		<ellipse transform="matrix(0.5151 0.8571 -0.8571 0.5151 11.8084 -9.0012)" clip-path="url(#SVGID_4_)" fill="none" stroke="#D60057" stroke-width="1.712" cx="13.859" cy="5.936" rx="4.852" ry="5.66"/>
</g>
<g>
	<defs>
		<rect id="SVGID_5_" width="255.827" height="73.662"/>
	</defs>
	<clipPath id="SVGID_6_">
		<use xlink:href="#SVGID_5_"  overflow="visible"/>
	</clipPath>
	<path clip-path="url(#SVGID_6_)" fill="#D60057" d="M43.865,71.886c2.681-1.609,3.733-4.776,2.354-7.075
		c-1.38-2.295-4.671-2.853-7.352-1.242c-2.68,1.609-3.732,4.777-2.353,7.074S41.186,73.496,43.865,71.886"/>
</g>
<g>
	<defs>
		<rect id="SVGID_7_" width="255.827" height="73.662"/>
	</defs>
	<clipPath id="SVGID_8_">
		<use xlink:href="#SVGID_7_"  overflow="visible"/>
	</clipPath>
	
		<ellipse transform="matrix(0.5151 0.8571 -0.8571 0.5151 78.1116 -2.6142)" clip-path="url(#SVGID_8_)" fill="none" stroke="#D60057" stroke-width="1.712" cx="41.366" cy="67.727" rx="4.852" ry="5.662"/>
</g>
</svg>
